<?xml version="1.0" encoding="UTF-8"?>
<svg id="Layer_1" xmlns="http://www.w3.org/2000/svg" viewBox="0 0 412.31 268.22">
  <defs>
    <style>
      .cls-1 {
        letter-spacing: -.05em;
      }

      .cls-2 {
        font-family: Gastromond-Regular, Gastromond;
        font-size: 79.62px;
      }

      .cls-2, .cls-3 {
        fill: #f9c02d;
      }

      .cls-4 {
        fill: #fff;
        opacity: .4;
      }

      .cls-4, .cls-5 {
        isolation: isolate;
      }

      .cls-5 {
        fill: #010101;
        opacity: .5;
      }
    </style>
  </defs>
  <g>
    <path class="cls-3" d="M260.76,249.11s-111.39-25.05-115.12-26.24l-.24-.05v-.03c-23.23-7.58-40.91-26.87-46.26-50.72l-2.53,10.74c-3.25,17.56-18.8,30.93-37.58,30.93-21.14,0-38.27-16.89-38.27-37.72,0-17,11.49-31.21,27.19-35.92l56.5-13.08c.36-.73.64-1.5,1.02-2.2-2.64.57-5.36.91-8.16.91-16.64,0-36.94-12.41-38.07-35.78-19.39-17.98-36.08-20.8-51.23-20.8v-18.86c16.23,0,35.21,2.75,56.23,19.05,2.63-4.51,6.12-8.44,10.36-11.53C59.1,39.93,59.03,14.45,59.03.5l19.14-.5v.5c0,18.77,1.47,39.23,16.6,50.04.85-.05,1.67-.25,2.54-.25,21.14,0,38.27,16.89,38.27,37.72,0,2.77-.34,5.44-.92,8.05.73-.38,1.51-.65,2.23-1.01l13.28-55.74c4.8-15.44,19.2-26.74,36.43-26.74,21.14,0,38.27,16.89,38.27,37.72,0,17.56-12.23,32.19-28.72,36.39l-13.62,3.13c25.69,5.58,46.13,24.89,52.75,49.86l25.48,109.44Z"/>
    <path class="cls-5" d="M212.12,238.13l37.49-36.95,5.05,21.69-20.53,20.23c-6.74-1.51-14.26-3.22-22.02-4.97ZM182.25,231.36l60.49-59.62-5.05-21.69-77.4,76.28c6.12,1.42,13.65,3.14,21.96,5.03ZM132.91,217.12l95.32-93.95c-3.21-5.57-7.12-10.65-11.71-15.13l-99.01,97.58c4.54,4.51,9.76,8.32,15.4,11.49ZM94.77,50.54c-15.13-10.81-16.6-31.26-16.6-50.04v-.5l-19.14.5c0,13.96.06,39.43,15.56,57.31,5.72-4.19,12.63-6.76,20.17-7.27ZM59.03,88.01c0-6.83,1.99-13.15,5.2-18.67-21.02-16.29-40.01-19.05-56.23-19.05v18.86c15.16,0,31.84,2.82,51.23,20.8-.03-.67-.2-1.24-.2-1.94Z"/>
    <path class="cls-4" d="M96.62,182.79c-3.25,17.59-18.8,30.95-37.58,30.95-21.14,0-38.27-16.89-38.27-37.72,0-17,11.49-31.21,27.19-35.92l62.11-14.37-13.45,57.06ZM224.88,50.29c0-20.83-17.13-37.72-38.27-37.72-17.23,0-31.64,11.3-36.43,26.74l-14.59,61.27,60.58-13.91c16.48-4.2,28.72-18.82,28.72-36.39Z"/>
  </g>
  <text class="cls-2" transform="translate(0 249.11) scale(.94 1)"><tspan x="0" y="0" xml:space="preserve">Bee     </tspan><tspan class="cls-1" x="249.69" y="0">V</tspan><tspan x="310.76" y="0">ibe</tspan></text>
</svg>