<?xml version="1.0" encoding="UTF-8"?>
<svg id="Layer_1" xmlns="http://www.w3.org/2000/svg" version="1.1" viewBox="0 0 38 45">
  <!-- Generator: Adobe Illustrator 29.0.1, SVG Export Plug-In . SVG Version: 2.1.0 Build 192)  -->
  <defs>
    <style>
      .st0 {
        fill: #fffd41;
        stroke: #d1c800;
        stroke-miterlimit: 10;
        stroke-width: .6px;
      }

      .st1 {
        fill: #caccc8;
      }
    </style>
  </defs>
  <polygon class="st1" points="29.8 35.7 20.5 29.1 11.3 36 14.7 25.1 5.3 18.5 16.7 18.3 20.1 7.3 23.8 18.2 35.3 18 26.1 24.9 29.8 35.7"/>
  <line class="st0" x1="16.7" y1="18.3" x2="20.1" y2="7.3"/>
  <line class="st0" x1="16.7" y1="18.1" x2="5.2" y2="18.2"/>
  <line class="st0" x1="14.7" y1="25.1" x2="5.3" y2="18.5"/>
  <line class="st0" x1="11.3" y1="36" x2="14.7" y2="25"/>
  <line class="st0" x1="11.3" y1="36" x2="20.3" y2="29.1"/>
  <line class="st0" x1="29.8" y1="35.7" x2="20.5" y2="29.1"/>
  <line class="st0" x1="29.8" y1="35.7" x2="26.1" y2="24.9"/>
  <line class="st0" x1="26.1" y1="24.9" x2="35.3" y2="18"/>
  <line class="st0" x1="23.8" y1="18.2" x2="35.3" y2="18"/>
  <line class="st0" x1="23.9" y1="18.4" x2="20.1" y2="7.3"/>
</svg>